# xmcd CD database file
#
# Track frame offsets:
#	150
#	12585
#	25607
#	38745
#	53402
#	66220
#	79372
#	94415
#	108300
#	121055
#	134207
#	151415
#	163300
#	177605
#	188442
#	201445
#
# Disc length: 2861 seconds
#
# Revision: 0
# Processed by: cddbd v1.5.2PL0 Copyright (c) Steve Scherf et al.
# Submitted via: CDex 1.51
#
DISCID=de0b2b10
DTITLE=Billie Holliday - Me, myself and I - CD3 Blue Billie
DYEAR=2006
DGENRE=Jazz
TTITLE0=The Very Thought Of You
TTITLE1=St. Louis Blues
TTITLE2=I've Got My Love To Keep Me Warm
TTITLE3=Can't Help Lovin' Dat Man
TTITLE4=Am I Blue?
TTITLE5=God Blues The Child
TTITLE6=Love Me Or Leave Me
TTITLE7=Long Gone Bluer
TTITLE8=When You're Smiling
TTITLE9=Swing! Brother
TTITLE10=All Of Me
TTITLE11=Billie's Blues
TTITLE12=If You Were Mine
TTITLE13=When A Woman Loves A Man
TTITLE14=You Go To My Head
TTITLE15=Let's Do
EXTD=YEAR: 2006
EXTT0=
EXTT1=
EXTT2=
EXTT3=
EXTT4=
EXTT5=
EXTT6=
EXTT7=
EXTT8=
EXTT9=
EXTT10=
EXTT11=
EXTT12=
EXTT13=
EXTT14=
EXTT15=
PLAYORDER=
